<?xml version="1.0" standalone="no"?>
<!DOCTYPE svg PUBLIC "-//W3C//DTD SVG 20010904//EN"
 "http://www.w3.org/TR/2001/REC-SVG-20010904/DTD/svg10.dtd">
<svg version="1.0" xmlns="http://www.w3.org/2000/svg"
 width="82.000000pt" height="82.000000pt" viewBox="0 0 82.000000 82.000000"
 preserveAspectRatio="xMidYMid meet">
<metadata>
Created by potrace 1.14, written by Peter Selinger 2001-2017
</metadata>
<g transform="translate(0.000000,82.000000) scale(0.100000,-0.100000)"
fill="#000000" stroke="none">
<path d="M340 812 c0 -4 5 -13 12 -20 7 -7 11 -44 11 -99 l-1 -88 -83 -122
c-78 -113 -106 -141 -103 -99 1 9 -4 16 -12 16 -21 0 -17 -48 5 -60 11 -5 54
-10 96 -10 65 0 87 5 141 31 35 16 64 34 64 40 0 5 -10 3 -22 -5 -26 -16 -76
-31 -129 -40 -31 -6 -37 -3 -42 14 -6 22 22 64 54 81 25 13 49 18 107 20 52 3
102 17 102 29 0 4 -15 30 -34 58 -32 48 -33 54 -34 142 0 69 3 93 14 97 8 3
11 9 8 14 -7 11 -154 12 -154 1z"/>
<path d="M562 480 c2 -33 -20 -98 -46 -133 -45 -62 -148 -87 -204 -51 -29 19
-137 21 -159 2 -18 -15 -16 -65 3 -72 9 -3 130 -6 269 -6 192 0 256 3 262 13
15 24 0 63 -53 139 -30 43 -54 83 -54 90 0 7 -5 20 -10 28 -8 12 -9 10 -8 -10z"/>
<path d="M510 126 l0 -56 45 0 c33 0 45 4 45 15 0 8 9 15 20 15 11 0 23 -7 26
-15 7 -18 24 -20 24 -3 0 7 -7 32 -17 56 -20 55 -41 52 -62 -8 -12 -34 -20
-45 -33 -42 -19 4 -20 5 -22 54 0 17 -7 33 -13 36 -10 3 -13 -12 -13 -52z
m120 14 c0 -11 -4 -20 -9 -20 -5 0 -7 9 -4 20 3 11 7 20 9 20 2 0 4 -9 4 -20z"/>
<path d="M689 160 c-1 -11 -1 -31 -1 -45 0 -44 2 -46 35 -43 30 3 32 5 33 43
2 55 -4 65 -37 65 -22 0 -29 -5 -30 -20z m46 -10 c3 -5 -1 -10 -9 -10 -9 0
-16 5 -16 10 0 6 4 10 9 10 6 0 13 -4 16 -10z m5 -45 c0 -8 -7 -15 -15 -15 -8
0 -15 7 -15 15 0 8 7 15 15 15 8 0 15 -7 15 -15z"/>
<path d="M76 137 c-27 -65 -28 -77 -12 -77 9 0 16 5 16 10 0 6 11 10 25 10 14
0 25 -4 25 -10 0 -5 7 -10 16 -10 11 0 14 6 8 22 -29 93 -54 111 -78 55z m32
-36 c-15 -5 -19 4 -11 24 6 18 7 18 13 -1 4 -10 3 -21 -2 -23z"/>
<path d="M176 152 c-33 -38 -4 -92 50 -92 31 0 34 3 34 30 0 25 -4 30 -25 30
-14 0 -25 -4 -25 -10 0 -5 8 -10 17 -10 12 0 14 -3 7 -10 -17 -17 -44 0 -44
26 0 17 7 25 24 30 14 3 30 3 35 -1 6 -3 11 1 11 9 0 23 -62 21 -84 -2z"/>
<path d="M281 115 c0 -42 3 -55 14 -55 8 0 15 9 15 20 0 26 17 26 25 0 3 -11
13 -20 21 -20 16 0 18 9 5 29 -5 8 -6 24 -1 36 11 29 -5 45 -46 45 l-32 0 -1
-55z m51 20 c0 -5 -5 -11 -11 -13 -6 -2 -11 4 -11 13 0 9 5 15 11 13 6 -2 11
-8 11 -13z"/>
<path d="M384 145 c-14 -21 -14 -30 -4 -55 10 -25 18 -30 46 -30 41 0 70 36
58 72 -9 29 -22 38 -56 38 -18 0 -33 -8 -44 -25z m71 -16 c10 -29 -18 -57 -39
-40 -15 12 -16 28 -3 49 12 19 35 14 42 -9z"/>
</g>
</svg>
